<mxfile host="app.diagrams.net" modified="2023-12-08T11:30:36.270Z" agent="Mozilla/5.0 (Windows NT 10.0; Win64; x64) AppleWebKit/537.36 (KHTML, like Gecko) Chrome/120.0.0.0 Safari/537.36" version="22.1.7" etag="u7siq8_VmJm8SPE5hdPi" type="github">
  <diagram name="Page-1" id="HJYx8hpq2G2QH9DVnhUZ">
    <mxGraphModel>
      <root>
        <mxCell id="0" />
        <mxCell id="1" parent="0" />
      </root>
    </mxGraphModel>
  </diagram>
</mxfile>
